<?xml version="1.0" encoding="utf-8" standalone="no"?>
<!DOCTYPE svg PUBLIC "-//W3C//DTD SVG 1.1//EN"
  "http://www.w3.org/Graphics/SVG/1.1/DTD/svg11.dtd">
<svg xmlns:xlink="http://www.w3.org/1999/xlink" width="136.746pt" height="45.36pt" viewBox="0 0 136.746 45.36" xmlns="http://www.w3.org/2000/svg" version="1.1">
 <metadata>
  <rdf:RDF xmlns:dc="http://purl.org/dc/elements/1.1/" xmlns:cc="http://creativecommons.org/ns#" xmlns:rdf="http://www.w3.org/1999/02/22-rdf-syntax-ns#">
   <cc:Work>
    <dc:type rdf:resource="http://purl.org/dc/dcmitype/StillImage"/>
    <dc:date>2026-05-14T00:19:24.770719</dc:date>
    <dc:format>image/svg+xml</dc:format>
    <dc:creator>
     <cc:Agent>
      <dc:title>Matplotlib v3.10.9, https://matplotlib.org/</dc:title>
     </cc:Agent>
    </dc:creator>
   </cc:Work>
  </rdf:RDF>
 </metadata>
 <defs>
  <style type="text/css">*{stroke-linejoin: round; stroke-linecap: butt}</style>
 </defs>
 <g id="figure_1">
  <g id="patch_1">
   <path d="M 0 45.36 
L 136.746 45.36 
L 136.746 0 
L 0 0 
L 0 45.36 
z
" style="fill: none"/>
  </g>
  <g id="axes_1">
   <g id="patch_2">
    <path d="M 78.63 27 
C 79.775677 27 80.874585 26.544818 81.684701 25.734701 
C 82.494818 24.924585 82.95 23.825677 82.95 22.68 
C 82.95 21.534323 82.494818 20.435415 81.684701 19.625299 
C 80.874585 18.815182 79.775677 18.36 78.63 18.36 
C 77.484323 18.36 76.385415 18.815182 75.575299 19.625299 
C 74.765182 20.435415 74.31 21.534323 74.31 22.68 
C 74.31 23.825677 74.765182 24.924585 75.575299 25.734701 
C 76.385415 26.544818 77.484323 27 78.63 27 
L 78.63 27 
z
" clip-path="url(#p3b01545dda)" style="fill: none; stroke: #ffffff; stroke-width: 2; stroke-linejoin: miter"/>
   </g>
   <g id="line2d_1">
    <path d="M 14.91 22.68 
L 32.91 22.68 
L 50.91 22.68 
" clip-path="url(#p3b01545dda)" style="fill: none; stroke: #ffffff; stroke-width: 2; stroke-linecap: round"/>
   </g>
   <g id="line2d_2">
    <path d="M 12.93 22.68 
L 50.91 22.68 
M 82.95 22.68 
L 120.93 22.68 
" clip-path="url(#p3b01545dda)" style="fill: none; stroke: #ffffff; stroke-width: 2; stroke-linecap: round"/>
   </g>
   <g id="line2d_3">
    <path d="M 50.91 4.68 
L 74.31 22.68 
L 50.91 40.68 
L 50.91 4.68 
" clip-path="url(#p3b01545dda)" style="fill: none; stroke: #ffffff; stroke-width: 2; stroke-linecap: round"/>
   </g>
   <g id="line2d_4">
    <path d="M 82.95 22.68 
L 100.95 22.68 
L 118.95 22.68 
" clip-path="url(#p3b01545dda)" style="fill: none; stroke: #ffffff; stroke-width: 2; stroke-linecap: round"/>
   </g>
   <g id="text_1">
    <!-- $x$ -->
    <g style="fill: #ffffff" transform="translate(3.51 26.267187) scale(0.13 -0.13)">
     <defs>
      <path id="DejaVuSans-Oblique-78" d="M 3841 3500 
L 2234 1784 
L 3219 0 
L 2559 0 
L 1819 1388 
L 531 0 
L -166 0 
L 1556 1844 
L 641 3500 
L 1300 3500 
L 1972 2234 
L 3144 3500 
L 3841 3500 
z
" transform="scale(0.015625)"/>
     </defs>
     <use xlink:href="#DejaVuSans-Oblique-78" transform="translate(0 0.3125)"/>
    </g>
   </g>
   <g id="text_2">
    <!-- $x'$ -->
    <g style="fill: #ffffff" transform="translate(122.55 26.267187) scale(0.13 -0.13)">
     <defs>
      <path id="Cmsy10-30" d="M 225 347 
Q 184 359 184 409 
L 966 3316 
Q 1003 3434 1093 3506 
Q 1184 3578 1300 3578 
Q 1450 3578 1564 3479 
Q 1678 3381 1678 3231 
Q 1678 3166 1644 3084 
L 488 319 
Q 466 275 428 275 
Q 394 275 320 306 
Q 247 338 225 347 
z
" transform="scale(0.015625)"/>
     </defs>
     <use xlink:href="#DejaVuSans-Oblique-78" transform="translate(0 0.584375)"/>
     <use xlink:href="#Cmsy10-30" transform="translate(63.645833 38.865625) scale(0.7)"/>
    </g>
   </g>
  </g>
 </g>
 <defs>
  <clipPath id="p3b01545dda">
   <rect x="0" y="0" width="136.746" height="45.36"/>
  </clipPath>
 </defs>
</svg>
